<svg width="46" height="44" viewBox="0 0 46 44" fill="none" xmlns="http://www.w3.org/2000/svg">
<path fill-rule="evenodd" clip-rule="evenodd" d="M8.61099 29.5161C8.00712 29.8648 7.5176 29.5822 7.51763 28.8849L7.51765 28.3324C7.51767 27.6351 8.00723 26.7872 8.61111 26.4385L9.0895 26.1622C9.69337 25.8136 10.1829 26.0962 10.1829 26.7935L10.1828 27.3459C10.1828 28.0432 9.69326 28.8912 9.08939 29.2399L8.61099 29.5161ZM9.70482 18.113C8.49707 18.8104 7.51804 18.2451 7.51809 16.8505L7.51814 15.7456C7.51819 14.351 8.49731 12.6551 9.70505 11.9577L10.6618 11.4053C11.8696 10.7079 12.8486 11.2731 12.8486 12.6678L12.8485 13.7726C12.8485 15.1673 11.8694 16.8632 10.6616 17.5605L9.70482 18.113ZM15.9306 12.9794C14.9644 13.5373 14.1812 13.0851 14.1812 11.9694L14.1812 11.3933C14.1813 10.2776 14.9646 8.92086 15.9308 8.36297L16.4297 8.07489C17.3959 7.517 18.1791 7.9692 18.1791 9.08491L18.179 9.66103C18.179 10.7767 17.3957 12.1335 16.4295 12.6914L15.9306 12.9794ZM7.51787 23.5108C7.51783 24.6266 8.30105 25.0788 9.26725 24.5209L9.76616 24.2328C10.7324 23.6749 11.5157 22.3182 11.5157 21.2025L11.5157 20.6263C11.5158 19.5106 10.7325 19.0584 9.76634 19.6163L9.26743 19.9044C8.30123 20.4623 7.51793 21.819 7.51789 22.9347L7.51787 23.5108ZM11.5156 25.0377C11.5155 25.735 12.005 26.0176 12.6089 25.6689L13.0873 25.3927C13.6912 25.044 14.1807 24.1961 14.1808 23.4987L14.1808 22.9463C14.1808 22.249 13.6913 21.9664 13.0874 22.315L12.609 22.5913C12.0052 22.94 11.5156 23.7879 11.5156 24.4852L11.5156 25.0377ZM20.605 8.74154C20.0011 9.09023 19.5116 8.8076 19.5116 8.11028L19.5117 7.55786C19.5117 6.86054 20.0012 6.01258 20.6051 5.6639L21.0835 5.38767C21.6874 5.03898 22.1769 5.32161 22.1769 6.01893L22.1769 6.57135C22.1768 7.26867 21.6873 8.11663 21.0834 8.46531L20.605 8.74154ZM18.1789 13.4962C18.1789 14.1936 18.6684 14.4762 19.2723 14.1275L19.7506 13.8513C20.3545 13.5026 20.8441 12.6546 20.8441 11.9573L20.8441 11.4049C20.8442 10.7076 20.3546 10.4249 19.7508 10.7736L19.2724 11.0499C18.6685 11.3985 18.1789 12.2465 18.1789 12.9438L18.1789 13.4962ZM17.9394 21.0523C17.3355 21.4009 16.846 21.1183 16.8461 20.421L16.8461 19.8686C16.8461 19.1713 17.3357 18.3233 17.9395 17.9746L18.4179 17.6984C19.0218 17.3497 19.5113 17.6323 19.5113 18.3297L19.5113 18.8821C19.5112 19.5794 19.0217 20.4274 18.4178 20.776L17.9394 21.0523ZM12.8483 18.8941C12.8483 20.0099 13.6315 20.4621 14.5977 19.9042L15.0966 19.6161C16.0628 19.0582 16.8461 17.7015 16.8461 16.5858L16.8462 16.0096C16.8462 14.8939 16.063 14.4417 15.0968 14.9996L14.5979 15.2877C13.6317 15.8456 12.8484 17.2023 12.8483 18.318L12.8483 18.8941Z" fill="black"/>
<path fill-rule="evenodd" clip-rule="evenodd" d="M32.6403 12.6234C32.6402 11.2287 33.6192 10.6635 34.827 11.3608L35.7838 11.9133C36.9915 12.6107 37.9706 14.3066 37.9707 15.7012L37.9707 16.8061C37.9708 18.2007 36.9917 18.766 35.784 18.0686L34.8272 17.5161C33.6195 16.8188 32.6404 15.1229 32.6403 13.7282L32.6403 12.6234ZM33.9731 20.5819C33.973 19.4662 34.7563 19.014 35.7225 19.5719L36.2214 19.8599C37.1876 20.4178 37.9708 21.7745 37.9709 22.8903L37.9709 23.4664C37.971 24.5821 37.1877 25.0343 36.2215 24.4764L35.7226 24.1883C34.7564 23.6304 33.9731 22.2737 33.9731 21.158L33.9731 20.5819ZM29.0592 8.03046C28.093 7.47257 27.3097 7.92477 27.3098 9.04048L27.3098 9.6166C27.3098 10.7323 28.0931 12.089 29.0593 12.6469L29.5582 12.935C30.5244 13.4929 31.3077 13.0407 31.3076 11.925L31.3076 11.3489C31.3075 10.2331 30.5243 8.87642 29.5581 8.31853L29.0592 8.03046ZM23.3119 5.97453C23.3119 5.27721 23.8014 4.99458 24.4053 5.34326L24.8837 5.61949C25.4876 5.96818 25.9771 6.81613 25.9771 7.51345L25.9772 8.06587C25.9772 8.76319 25.4877 9.04582 24.8838 8.69714L24.4054 8.42091C23.8015 8.07223 23.312 7.22427 23.312 6.52696L23.3119 5.97453ZM25.7381 10.7292C25.1342 10.3805 24.6447 10.6631 24.6447 11.3605L24.6447 11.9129C24.6448 12.6102 25.1343 13.4581 25.7382 13.8068L26.2166 14.0831C26.8205 14.4317 27.31 14.1491 27.3099 13.4518L27.3099 12.8994C27.3099 12.202 26.8203 11.3541 26.2165 11.0054L25.7381 10.7292ZM35.3059 26.7491C35.3059 26.0517 35.7954 25.7691 36.3993 26.1178L36.8777 26.394C37.4815 26.7427 37.9711 27.5907 37.9711 28.288L37.9711 28.8404C37.9712 29.5377 37.4816 29.8204 36.8778 29.4717L36.3994 29.1954C35.7955 28.8468 35.3059 27.9988 35.3059 27.3015L35.3059 26.7491ZM32.4014 22.2706C31.7975 21.9219 31.308 22.2045 31.308 22.9019L31.308 23.4543C31.3081 24.1516 31.7976 24.9996 32.4015 25.3482L32.8799 25.6245C33.4838 25.9731 33.9733 25.6905 33.9732 24.9932L33.9732 24.4408C33.9732 23.7435 33.4836 22.8955 32.8798 22.5468L32.4014 22.2706ZM25.9776 18.2852C25.9775 17.5879 26.4671 17.3053 27.0709 17.654L27.5493 17.9302C28.1532 18.2789 28.6427 19.1268 28.6428 19.8241L28.6428 20.3766C28.6428 21.0739 28.1533 21.3565 27.5494 21.0078L27.071 20.7316C26.4672 20.3829 25.9776 19.535 25.9776 18.8376L25.9776 18.2852ZM30.392 14.9552C29.4258 14.3973 28.6426 14.8495 28.6426 15.9652L28.6427 16.5413C28.6427 17.6571 29.426 19.0138 30.3922 19.5717L30.8911 19.8597C31.8573 20.4176 32.6405 19.9654 32.6405 18.8497L32.6404 18.2736C32.6404 17.1579 31.8571 15.8012 30.8909 15.2433L30.392 14.9552Z" fill="black"/>
<path fill-rule="evenodd" clip-rule="evenodd" d="M19.6766 35.0781C18.4688 35.7754 18.4688 36.9059 19.6766 37.6031L20.6334 38.1555C21.8412 38.8528 23.7995 38.8528 25.0073 38.1555L25.9641 37.6031C27.1719 36.9059 27.1719 35.7754 25.9641 35.0781L25.0073 34.5257C23.7995 33.8284 21.8412 33.8284 20.6334 34.5257L19.6766 35.0781ZM27.2352 32.2531C26.2689 32.8109 26.2689 33.7153 27.2352 34.2731L27.7341 34.5612C28.7003 35.119 30.2669 35.119 31.2332 34.5612L31.7321 34.2731C32.6983 33.7153 32.6983 32.8109 31.7321 32.2531L31.2332 31.9651C30.2669 31.4072 28.7003 31.4072 27.7341 31.9651L27.2352 32.2531ZM13.9085 34.2732C12.9423 33.7153 12.9423 32.8109 13.9085 32.2531L14.4075 31.9651C15.3737 31.4073 16.9403 31.4073 17.9065 31.9651L18.4055 32.2531C19.3717 32.8109 19.3717 33.7153 18.4055 34.2732L17.9065 34.5612C16.9403 35.119 15.3737 35.119 14.4075 34.5612L13.9085 34.2732ZM9.25447 30.3238C8.65057 30.6725 8.65057 31.2377 9.25447 31.5863L9.73288 31.8625C10.3368 32.2112 11.3159 32.2112 11.9198 31.8625L12.3982 31.5863C13.0021 31.2377 13.0021 30.6724 12.3982 30.3238L11.9198 30.0476C11.3159 29.699 10.3368 29.699 9.73289 30.0476L9.25447 30.3238ZM14.5851 30.0476C13.9812 29.699 13.9812 29.1337 14.5851 28.7851L15.0635 28.5089C15.6674 28.1603 16.6466 28.1603 17.2505 28.5089L17.7289 28.7851C18.3328 29.1337 18.3328 29.699 17.7289 30.0476L17.2505 30.3238C16.6466 30.6724 15.6674 30.6724 15.0635 30.3238L14.5851 30.0476ZM33.2424 30.3238C32.6385 30.6724 32.6385 31.2377 33.2424 31.5863L33.7209 31.8625C34.3248 32.2111 35.3039 32.2111 35.9078 31.8625L36.3862 31.5863C36.9901 31.2377 36.9901 30.6724 36.3862 30.3238L35.9078 30.0476C35.3039 29.699 34.3248 29.699 33.7209 30.0476L33.2424 30.3238ZM27.9118 30.0476C27.3079 29.699 27.3079 29.1337 27.9118 28.7851L28.3902 28.5089C28.9941 28.1602 29.9732 28.1602 30.5771 28.5089L31.0555 28.7851C31.6594 29.1337 31.6594 29.699 31.0555 30.0476L30.5771 30.3238C29.9732 30.6724 28.9941 30.6724 28.3902 30.3238L27.9118 30.0476ZM21.2485 26.477C20.6446 26.8256 20.6446 27.3909 21.2485 27.7395L21.7269 28.0157C22.3308 28.3644 23.3099 28.3644 23.9138 28.0157L24.3922 27.7395C24.9961 27.3909 24.9961 26.8256 24.3922 26.477L23.9138 26.2008C23.3099 25.8522 22.3308 25.8522 21.7269 26.2008L21.2485 26.477ZM20.5719 31.9651C19.6056 31.4073 19.6056 30.5029 20.5719 29.9451L21.0708 29.657C22.0371 29.0992 23.6036 29.0992 24.5699 29.657L25.0688 29.945C26.035 30.5029 26.035 31.4073 25.0688 31.9651L24.5699 32.2531C23.6036 32.8109 22.037 32.8109 21.0708 32.2531L20.5719 31.9651Z" fill="black"/>
</svg>
