<svg width="66" height="64" viewBox="0 0 66 64" fill="none" xmlns="http://www.w3.org/2000/svg">
<path fill-rule="evenodd" clip-rule="evenodd" d="M12.5429 42.9935C11.6633 43.5014 10.9502 43.0897 10.9503 42.074L10.9503 41.2693C10.9503 40.2536 11.6634 39.0184 12.543 38.5105L13.2399 38.1082C14.1195 37.6003 14.8325 38.0119 14.8325 39.0277L14.8325 39.8323C14.8324 40.8481 14.1193 42.0832 13.2397 42.5911L12.5429 42.9935ZM14.1362 26.3836C12.3769 27.3994 10.9509 26.576 10.9509 24.5446L10.951 22.9352C10.9511 20.9038 12.3773 18.4335 14.1365 17.4177L15.5302 16.613C17.2894 15.5972 18.7155 16.4205 18.7154 18.452L18.7153 20.0613C18.7152 22.0928 17.2891 24.5631 15.5298 25.5788L14.1362 26.3836ZM23.2047 18.9059C21.7973 19.7186 20.6565 19.0599 20.6565 17.4347L20.6566 16.5956C20.6566 14.9704 21.7976 12.9942 23.2049 12.1815L23.9317 11.7619C25.339 10.9493 26.4799 11.608 26.4798 13.2331L26.4798 14.0723C26.4797 15.6975 25.3388 17.6737 23.9314 18.4863L23.2047 18.9059ZM10.9506 34.2461C10.9506 35.8713 12.0914 36.53 13.4988 35.7173L14.2255 35.2977C15.6329 34.4851 16.7738 32.5088 16.7739 30.8837L16.7739 30.0445C16.774 28.4194 15.6331 27.7607 14.2258 28.5733L13.499 28.9929C12.0917 29.8056 10.9507 31.7818 10.9507 33.4069L10.9506 34.2461ZM16.7737 36.4701C16.7737 37.4858 17.4867 37.8975 18.3663 37.3896L19.0631 36.9872C19.9427 36.4793 20.6558 35.2442 20.6559 34.2285L20.6559 33.4238C20.656 32.4081 19.9429 31.9964 19.0633 32.5043L18.3665 32.9067C17.4869 33.4146 16.7738 34.6497 16.7737 35.6654L16.7737 36.4701ZM30.0135 12.733C29.1339 13.2409 28.4208 12.8292 28.4209 11.8135L28.4209 11.0088C28.4209 9.99308 29.134 8.75794 30.0137 8.25004L30.7105 7.84768C31.5901 7.33979 32.3031 7.75146 32.3031 8.76719L32.3031 9.57186C32.303 10.5876 31.5899 11.8227 30.7103 12.3306L30.0135 12.733ZM26.4796 19.6587C26.4795 20.6744 27.1926 21.0861 28.0722 20.5782L28.769 20.1759C29.6486 19.668 30.3617 18.4328 30.3618 17.4171L30.3618 16.6124C30.3618 15.5967 29.6488 15.185 28.7692 15.6929L28.0724 16.0953C27.1927 16.6032 26.4797 17.8383 26.4796 18.8541L26.4796 19.6587ZM26.1308 30.6649C25.2512 31.1728 24.5381 30.7611 24.5382 29.7454L24.5382 28.9407C24.5382 27.925 25.2513 26.6899 26.1309 26.182L26.8278 25.7796C27.7074 25.2717 28.4204 25.6834 28.4204 26.6991L28.4203 27.5038C28.4203 28.5195 27.7072 29.7547 26.8276 30.2626L26.1308 30.6649ZM18.715 27.5214C18.715 29.1465 19.8558 29.8052 21.2632 28.9926L21.9899 28.573C23.3973 27.7603 24.5382 25.7841 24.5383 24.159L24.5383 23.3198C24.5384 21.6946 23.3975 21.0359 21.9902 21.8486L21.2634 22.2682C19.8561 23.0808 18.7151 25.057 18.7151 26.6822L18.715 27.5214Z" fill="#1E40AF"/>
<path fill-rule="evenodd" clip-rule="evenodd" d="M47.5442 18.3872C47.5442 16.3558 48.9702 15.5324 50.7294 16.5482L52.1231 17.3529C53.8823 18.3687 55.3085 20.839 55.3086 22.8704L55.3086 24.4797C55.3087 26.5112 53.8827 27.3346 52.1234 26.3188L50.7298 25.514C48.9706 24.4983 47.5444 22.028 47.5443 19.9965L47.5442 18.3872ZM49.4856 29.9797C49.4856 28.3545 50.6264 27.6958 52.0338 28.5084L52.7605 28.9281C54.1679 29.7407 55.3088 31.7169 55.3089 33.3421L55.3089 34.1812C55.309 35.8064 54.1681 36.4651 52.7608 35.6525L52.034 35.2328C50.6267 34.4202 49.4857 32.444 49.4857 30.8188L49.4856 29.9797ZM42.3279 11.6971C40.9206 10.8845 39.7797 11.5432 39.7798 13.1683L39.7798 14.0075C39.7799 15.6327 40.9208 17.6089 42.3282 18.4215L43.0549 18.8411C44.4623 19.6537 45.6031 18.9951 45.6031 17.3699L45.603 16.5307C45.603 14.9056 44.462 12.9294 43.0547 12.1167L42.3279 11.6971ZM33.9565 8.70242C33.9565 7.6867 34.6695 7.27502 35.5491 7.78291L36.2459 8.18527C37.1255 8.69317 37.8386 9.9283 37.8387 10.944L37.8387 11.7487C37.8387 12.7644 37.1257 13.1761 36.2461 12.6682L35.5493 12.2658C34.6697 11.758 33.9566 10.5228 33.9565 9.50709L33.9565 8.70242ZM37.4904 15.6281C36.6108 15.1202 35.8978 15.5319 35.8978 16.5476L35.8979 17.3523C35.8979 18.368 36.611 19.6031 37.4906 20.111L38.1874 20.5134C39.067 21.0213 39.7801 20.6096 39.78 19.5939L39.78 18.7892C39.78 17.7735 39.0669 16.5384 38.1873 16.0305L37.4904 15.6281ZM51.427 38.9629C51.427 37.9471 52.14 37.5355 53.0196 38.0433L53.7165 38.4457C54.5961 38.9536 55.3092 40.1887 55.3092 41.2045L55.3092 42.0091C55.3093 43.0248 54.5962 43.4365 53.7166 42.9286L53.0198 42.5263C52.1402 42.0184 51.4271 40.7832 51.4271 39.7675L51.427 38.9629ZM47.1963 32.4394C46.3167 31.9316 45.6036 32.3432 45.6037 33.359L45.6037 34.1636C45.6037 35.1794 46.3168 36.4145 47.1964 36.9224L47.8933 37.3247C48.7729 37.8326 49.4859 37.421 49.4859 36.4052L49.4858 35.6006C49.4858 34.5848 48.7727 33.3497 47.8931 32.8418L47.1963 32.4394ZM37.8393 26.6343C37.8392 25.6186 38.5523 25.2069 39.4319 25.7148L40.1287 26.1172C41.0083 26.6251 41.7214 27.8602 41.7214 28.8759L41.7215 29.6806C41.7215 30.6963 41.0085 31.108 40.1289 30.6001L39.432 30.1977C38.5524 29.6898 37.8393 28.4547 37.8393 27.439L37.8393 26.6343ZM44.2694 21.7838C42.862 20.9712 41.7212 21.6298 41.7212 23.255L41.7213 24.0942C41.7213 25.7193 42.8623 27.6955 44.2697 28.5082L44.9964 28.9278C46.4037 29.7404 47.5446 29.0817 47.5445 27.4566L47.5445 26.6174C47.5444 24.9922 46.4035 23.016 44.9961 22.2034L44.2694 21.7838Z" fill="#1E40AF"/>
<path fill-rule="evenodd" clip-rule="evenodd" d="M28.6612 51.0935C26.9019 52.1092 26.9019 53.7559 28.6612 54.7715L30.0549 55.5761C31.8142 56.5918 34.6666 56.5918 36.4259 55.5761L37.8196 54.7715C39.5789 53.7559 39.5789 52.1092 37.8196 51.0935L36.4259 50.2889C34.6666 49.2732 31.8142 49.2732 30.0549 50.2889L28.6612 51.0935ZM39.6711 46.9786C38.2637 47.7911 38.2637 49.1085 39.6711 49.921L40.3978 50.3406C41.8053 51.1531 44.0872 51.1531 45.4946 50.3406L46.2214 49.921C47.6288 49.1085 47.6288 47.7911 46.2214 46.9786L45.4946 46.559C44.0872 45.7465 41.8053 45.7465 40.3979 46.559L39.6711 46.9786ZM20.2594 49.921C18.8519 49.1085 18.8519 47.7912 20.2594 46.9786L20.9861 46.5591C22.3936 45.7465 24.6755 45.7465 26.0829 46.5591L26.8096 46.9786C28.2171 47.7912 28.2171 49.1085 26.8096 49.921L26.0829 50.3406C24.6754 51.1531 22.3935 51.1531 20.9861 50.3406L20.2594 49.921ZM13.4802 44.1684C12.6006 44.6762 12.6005 45.4996 13.4802 46.0074L14.1771 46.4097C15.0567 46.9175 16.4829 46.9175 17.3625 46.4097L18.0594 46.0074C18.9391 45.4996 18.9391 44.6762 18.0594 44.1684L17.3625 43.7661C16.4829 43.2582 15.0567 43.2582 14.1771 43.7661L13.4802 44.1684ZM21.2449 43.7661C20.3652 43.2582 20.3653 42.4349 21.2449 41.9271L21.9418 41.5248C22.8214 41.0169 24.2476 41.0169 25.1272 41.5247L25.8241 41.9271C26.7038 42.4349 26.7038 43.2582 25.8241 43.7661L25.1272 44.1684C24.2476 44.6762 22.8214 44.6762 21.9418 44.1684L21.2449 43.7661ZM48.4214 44.1683C47.5417 44.6762 47.5417 45.4995 48.4213 46.0074L49.1182 46.4097C49.9979 46.9175 51.424 46.9175 52.3037 46.4097L53.0006 46.0074C53.8802 45.4995 53.8802 44.6762 53.0006 44.1683L52.3037 43.766C51.4241 43.2582 49.9979 43.2582 49.1182 43.766L48.4214 44.1683ZM40.6566 43.766C39.777 43.2582 39.777 42.4349 40.6566 41.927L41.3535 41.5247C42.2331 41.0169 43.6593 41.0169 44.539 41.5247L45.2358 41.927C46.1155 42.4349 46.1155 43.2582 45.2358 43.766L44.539 44.1683C43.6593 44.6762 42.2331 44.6762 41.3535 44.1683L40.6566 43.766ZM30.9508 38.5651C30.0712 39.0729 30.0712 39.8963 30.9508 40.4041L31.6477 40.8064C32.5273 41.3142 33.9535 41.3142 34.8331 40.8064L35.53 40.4041C36.4097 39.8963 36.4097 39.0729 35.53 38.5651L34.8332 38.1628C33.9535 37.6549 32.5273 37.6549 31.6477 38.1628L30.9508 38.5651ZM29.9653 46.5591C28.5578 45.7466 28.5578 44.4292 29.9653 43.6167L30.692 43.1971C32.0995 42.3846 34.3814 42.3846 35.7888 43.1971L36.5155 43.6167C37.923 44.4292 37.923 45.7466 36.5155 46.5591L35.7888 46.9786C34.3813 47.7912 32.0994 47.7912 30.692 46.9786L29.9653 46.5591Z" fill="#1E40AF"/>
</svg>
