<svg width="76" height="16" viewBox="0 0 76 16" fill="none" xmlns="http://www.w3.org/2000/svg">
<path d="M31.4014 6.18164C31.7976 5.63405 32.3374 5.18895 33.0205 4.84668C33.7172 4.4908 34.489 4.31256 35.3359 4.3125C36.3334 4.3125 37.2358 4.55202 38.042 5.03125C38.8482 5.51052 39.4837 6.19587 39.9482 7.08594C40.4127 7.96211 40.6445 8.96828 40.6445 10.1045C40.6445 11.2409 40.4127 12.2614 39.9482 13.165C39.4837 14.0551 38.8414 14.7541 38.0215 15.2607C37.2153 15.7537 36.3198 16 35.3359 16C34.4617 15.9999 33.6831 15.8286 33 15.4863C32.3305 15.144 31.7976 14.7058 31.4014 14.1719V15.8154H29.0645V0.615234H31.4014V6.18164ZM51.3965 4.3125C52.6808 4.3125 53.7124 4.64166 54.4912 5.29883C55.2837 5.94238 55.708 6.82548 55.7627 7.94824H53.4258C53.3848 7.44169 53.1794 7.03754 52.8105 6.73633C52.4416 6.43524 51.9428 6.28516 51.3145 6.28516C50.6997 6.28517 50.2283 6.40107 49.9004 6.63379C49.5724 6.86658 49.4082 7.17518 49.4082 7.55859C49.4083 7.85967 49.5178 8.11305 49.7363 8.31836C49.9549 8.52372 50.2219 8.6883 50.5361 8.81152C50.8504 8.92105 51.3151 9.06427 51.9297 9.24219C52.7495 9.46127 53.4193 9.68715 53.9385 9.91992C54.4713 10.139 54.929 10.4681 55.3115 10.9062C55.6941 11.3444 55.8926 11.9266 55.9062 12.6523C55.9062 13.2958 55.7283 13.8713 55.373 14.3779C55.0178 14.8844 54.512 15.2809 53.8564 15.5684C53.2142 15.8559 52.4556 16 51.5811 16C50.6929 16 49.8932 15.8423 49.1826 15.5273C48.4859 15.1987 47.9323 14.7605 47.5225 14.2129C47.1127 13.6515 46.8945 13.0283 46.8672 12.3438H49.2852C49.3261 12.823 49.552 13.227 49.9619 13.5557C50.3855 13.8706 50.9115 14.0283 51.54 14.0283C52.1959 14.0283 52.7014 13.9047 53.0566 13.6582C53.4255 13.3981 53.6103 13.0698 53.6104 12.6729C53.6104 12.2484 53.405 11.9329 52.9951 11.7275C52.5988 11.5222 51.9632 11.2962 51.0889 11.0498C50.2418 10.817 49.5514 10.5911 49.0186 10.3721C48.4858 10.153 48.0212 9.81701 47.625 9.36523C47.2427 8.91348 47.0518 8.31817 47.0518 7.5791C47.0518 6.97664 47.2288 6.42848 47.584 5.93555C47.9392 5.42897 48.4448 5.03169 49.1006 4.74414C49.7701 4.45659 50.5357 4.31251 51.3965 4.3125ZM69.7285 4.3125C70.6167 4.3125 71.389 4.49065 72.0449 4.84668C72.7144 5.18898 73.2473 5.62036 73.6436 6.14062V4.49805H76.001V15.8154H73.6436V14.1309C73.2473 14.6648 72.7075 15.1098 72.0244 15.4658C71.3412 15.8218 70.562 16 69.6875 16C68.7175 16 67.8295 15.7535 67.0234 15.2607C66.2174 14.7542 65.5749 14.0559 65.0967 13.166C64.6321 12.2623 64.3995 11.2419 64.3994 10.1055C64.3994 8.96893 64.6321 7.96231 65.0967 7.08594C65.5749 6.20958 66.2172 5.532 67.0234 5.05273C67.8433 4.55984 68.7448 4.31251 69.7285 4.3125ZM18.4062 10.8027C18.4062 11.816 18.6595 12.5968 19.165 13.1445C19.6706 13.6785 20.3608 13.9453 21.2354 13.9453C22.1097 13.9453 22.8001 13.6785 23.3057 13.1445C23.8248 12.5968 24.084 11.8159 24.084 10.8027V4.49707H26.4209V15.8145H24.084V14.4795C23.7151 14.9451 23.2301 15.315 22.6289 15.5889C22.0413 15.849 21.4127 15.9795 20.7432 15.9795C19.855 15.9795 19.0553 15.7945 18.3447 15.4248C17.6479 15.0551 17.0945 14.5069 16.6846 13.7812C16.2884 13.0556 16.0908 12.1792 16.0908 11.1523V4.49707H18.4062V10.8027ZM7.27637 1.35449C8.79309 1.35449 10.1393 1.73127 11.3145 2.48438C12.5032 3.22381 13.3645 4.27815 13.8975 5.64746H11.0889C10.72 4.89452 10.2075 4.33355 9.55176 3.96387C8.89587 3.59415 8.13723 3.40918 7.27637 3.40918C6.33366 3.40922 5.49365 3.62148 4.75586 4.0459C4.01798 4.47039 3.43727 5.07981 3.01367 5.87402C2.6038 6.66819 2.39844 7.59219 2.39844 8.64648C2.39844 9.70078 2.60381 10.6248 3.01367 11.4189C3.43727 12.2132 4.01798 12.8294 4.75586 13.2676C5.49366 13.692 6.33365 13.9043 7.27637 13.9043C8.13715 13.9043 8.8959 13.7202 9.55176 13.3506C10.2076 12.9809 10.7199 12.4191 11.0889 11.666H13.8975C13.3645 13.0353 12.5033 14.0897 11.3145 14.8291C10.1393 15.5685 8.79311 15.9385 7.27637 15.9385C5.93735 15.9384 4.71417 15.6298 3.60742 15.0137C2.50077 14.3838 1.61969 13.5143 0.963867 12.4053C0.321639 11.2961 0 10.0432 0 8.64648C2.41143e-06 7.24977 0.321642 5.99685 0.963867 4.8877C1.6197 3.77868 2.50077 2.91598 3.60742 2.2998C4.72784 1.66995 5.95101 1.35453 7.27637 1.35449ZM44.8535 15.8154H42.5166V4.49805H44.8535V15.8154ZM60.7178 4.49707H63.4639V6.40723H60.7178V12.6719C60.7178 13.0964 60.8136 13.405 61.0049 13.5967C61.2099 13.7746 61.5512 13.8633 62.0293 13.8633H63.4639V15.8154H61.6191C60.5671 15.8154 59.7614 15.5681 59.2012 15.0752C58.6409 14.5822 58.3604 13.781 58.3604 12.6719V6.40723H57.0283V4.49707H58.3604V1.68359H60.7178V4.49707ZM34.8242 6.3457C34.2368 6.3457 33.6764 6.49673 33.1436 6.79785C32.6243 7.09909 32.2 7.53722 31.8721 8.1123C31.5578 8.68742 31.4014 9.36597 31.4014 10.1465C31.4014 10.9268 31.5579 11.6115 31.8721 12.2002C32.2 12.7753 32.6243 13.2134 33.1436 13.5146C33.6764 13.8158 34.2368 13.9668 34.8242 13.9668C35.4253 13.9668 35.9857 13.8159 36.5049 13.5146C37.0377 13.1997 37.4611 12.7478 37.7754 12.1592C38.1033 11.5704 38.2676 10.885 38.2676 10.1045C38.2675 9.32418 38.1033 8.65311 37.7754 8.0918C37.4611 7.51682 37.0377 7.08537 36.5049 6.79785C35.9857 6.49665 35.4253 6.34575 34.8242 6.3457ZM70.2207 6.34668C69.6196 6.34668 69.0592 6.49674 68.54 6.79785C68.0208 7.08539 67.5965 7.51675 67.2686 8.0918C66.9543 8.65322 66.7979 9.32495 66.7979 10.1055C66.7979 10.8858 66.9544 11.5705 67.2686 12.1592C67.5965 12.748 68.0208 13.1997 68.54 13.5146C69.0729 13.8158 69.6332 13.9668 70.2207 13.9668C70.8219 13.9668 71.3822 13.8159 71.9014 13.5146C72.4205 13.2134 72.8371 12.7752 73.1514 12.2002C73.4793 11.6114 73.6435 10.9269 73.6436 10.1465C73.6436 9.36597 73.4793 8.68742 73.1514 8.1123C72.8371 7.53739 72.4205 7.09903 71.9014 6.79785C71.3822 6.49665 70.8218 6.34672 70.2207 6.34668ZM43.7051 0C44.115 0 44.464 0.144081 44.751 0.431641C45.0376 0.719055 45.1806 1.07486 45.1807 1.49902C45.1807 1.92341 45.0378 2.27986 44.751 2.56738C44.464 2.85494 44.115 2.99902 43.7051 2.99902C43.2816 2.99897 42.9265 2.85487 42.6396 2.56738C42.3527 2.27982 42.209 1.92352 42.209 1.49902C42.2091 1.07474 42.3528 0.719099 42.6396 0.431641C42.9265 0.144133 43.2816 5.18755e-05 43.7051 0Z" fill="black"/>
</svg>
