<svg width="30" height="30" viewBox="0 0 30 30" fill="none" xmlns="http://www.w3.org/2000/svg">
<path d="M21.875 26.25V23.75C21.875 21.4202 20.2815 19.4626 18.125 18.9075M16.25 4.11344C18.0824 4.85518 19.375 6.65164 19.375 8.75C19.375 10.8484 18.0824 12.6448 16.25 13.3866M15 26.25C15 23.9203 15 22.7554 14.6194 21.8366C14.1119 20.6114 13.1386 19.6381 11.9134 19.1306C10.9946 18.75 9.82971 18.75 8.75 18.75H7.5C6.42029 18.75 5.25544 18.75 4.33658 19.1306C3.11144 19.6381 2.13807 20.6114 1.6306 21.8366C1.25 22.7554 1.25 23.9203 1.25 26.25M28.75 26.25V23.75C28.75 21.4202 27.1565 19.4626 25 18.9075M23.125 4.11345C24.9574 4.85518 26.25 6.65164 26.25 8.75C26.25 10.8484 24.9574 12.6448 23.125 13.3866M13.125 8.75C13.125 11.5114 10.8864 13.75 8.125 13.75C5.36358 13.75 3.125 11.5114 3.125 8.75C3.125 5.98858 5.36358 3.75 8.125 3.75C10.8864 3.75 13.125 5.98858 13.125 8.75Z" stroke="#1E40AF" stroke-width="2" stroke-linecap="round" stroke-linejoin="round"/>
</svg>
