<svg width="27" height="21" viewBox="0 0 27 21" fill="none" xmlns="http://www.w3.org/2000/svg">
<path d="M1.00024 13.4262L13.053 19.4526C13.217 19.5346 13.299 19.5756 13.385 19.5917C13.4612 19.606 13.5393 19.606 13.6155 19.5917C13.7015 19.5756 13.7835 19.5346 13.9475 19.4526L26.0002 13.4262M1.00024 7.17623L13.053 1.14984C13.217 1.06785 13.299 1.02685 13.385 1.01072C13.4612 0.996427 13.5393 0.996427 13.6155 1.01072C13.7015 1.02685 13.7835 1.06785 13.9475 1.14984L26.0002 7.17623L13.9475 13.2026C13.7835 13.2846 13.7015 13.3256 13.6155 13.3417C13.5393 13.356 13.4612 13.356 13.385 13.3417C13.299 13.3256 13.217 13.2846 13.053 13.2026L1.00024 7.17623Z" stroke="#1E40AF" stroke-width="2" stroke-linecap="round" stroke-linejoin="round"/>
</svg>
