<svg width="98" height="94" viewBox="0 0 98 94" fill="none" xmlns="http://www.w3.org/2000/svg">
<path fill-rule="evenodd" clip-rule="evenodd" d="M18.5425 63.5581C17.2422 64.309 16.1881 63.7004 16.1881 62.1988L16.1882 61.0092C16.1882 59.5077 17.2424 57.6817 18.5428 56.9309L19.5729 56.3361C20.8733 55.5852 21.9274 56.1938 21.9273 57.6954L21.9273 58.885C21.9272 60.3865 20.873 62.2125 19.5727 62.9633L18.5425 63.5581ZM20.8979 39.0032C18.2972 40.5049 16.189 39.2877 16.1891 36.2846L16.1892 33.9054C16.1893 30.9023 18.2977 27.2504 20.8984 25.7487L22.9587 24.5591C25.5595 23.0574 27.6677 24.2746 27.6675 27.2777L27.6674 29.6569C27.6673 32.66 25.559 36.3119 22.9582 37.8136L20.8979 39.0032ZM34.3042 27.9488C32.2236 29.1502 30.5371 28.1764 30.5372 25.7739L30.5372 24.5333C30.5373 22.1308 32.224 19.2093 34.3046 18.0079L35.3789 17.3876C37.4595 16.1863 39.146 17.16 39.146 19.5625L39.1459 20.8031C39.1458 23.2057 37.4591 26.1272 35.3785 27.3285L34.3042 27.9488ZM16.1887 50.6267C16.1886 53.0292 17.8751 54.0029 19.9557 52.8016L21.03 52.1813C23.1106 50.9799 24.7973 48.0584 24.7974 45.6559L24.7974 44.4153C24.7975 42.0128 23.111 41.039 21.0304 42.2404L19.9561 42.8607C17.8755 44.0621 16.1888 46.9836 16.1887 49.3861L16.1887 50.6267ZM24.7971 53.9144C24.797 55.416 25.8511 56.0246 27.1515 55.2738L28.1816 54.6789C29.482 53.9281 30.5362 52.1022 30.5362 50.6006L30.5363 49.411C30.5363 47.9094 29.4822 47.3009 28.1819 48.0517L27.1517 48.6465C25.8514 49.3973 24.7972 51.2233 24.7971 52.7249L24.7971 53.9144ZM44.3699 18.8232C43.0695 19.574 42.0154 18.9654 42.0155 17.4638L42.0155 16.2743C42.0156 14.7727 43.0698 12.9467 44.3701 12.1959L45.4003 11.6011C46.7006 10.8502 47.7547 11.4588 47.7547 12.9604L47.7546 14.15C47.7546 15.6516 46.7004 17.4775 45.4 18.2283L44.3699 18.8232ZM39.1456 29.0617C39.1455 30.5633 40.1996 31.1719 41.5 30.421L42.5301 29.8262C43.8305 29.0754 44.8847 27.2494 44.8847 25.7478L44.8848 24.5583C44.8848 23.0567 43.8307 22.4481 42.5304 23.199L41.5002 23.7938C40.1999 24.5446 39.1457 26.3706 39.1456 27.8721L39.1456 29.0617ZM38.6299 45.3325C37.3296 46.0833 36.2755 45.4747 36.2755 43.9731L36.2756 42.7836C36.2756 41.282 37.3298 39.4561 38.6302 38.7052L39.6603 38.1104C40.9607 37.3596 42.0148 37.9682 42.0147 39.4697L42.0147 40.6593C42.0146 42.1609 40.9604 43.9868 39.6601 44.7377L38.6299 45.3325ZM27.667 40.6853C27.6669 43.0878 29.3535 44.0616 31.434 42.8602L32.5084 42.2399C34.5889 41.0385 36.2756 38.117 36.2757 35.7145L36.2758 34.4739C36.2759 32.0714 34.5893 31.0977 32.5087 32.299L31.4344 32.9193C29.3538 34.1207 27.6671 37.0422 27.667 39.4447L27.667 40.6853Z" fill="#1E40AF"/>
<path fill-rule="evenodd" clip-rule="evenodd" d="M70.286 27.1815C70.2859 24.1783 72.3941 22.9612 74.9948 24.4628L77.0551 25.6525C79.6558 27.1541 81.7641 30.806 81.7643 33.8092L81.7643 36.1883C81.7645 39.1914 79.6563 40.4086 77.0556 38.907L74.9953 37.7173C72.3946 36.2157 70.2862 32.5638 70.2861 29.5606L70.286 27.1815ZM73.156 44.319C73.1559 41.9165 74.8425 40.9427 76.923 42.144L77.9974 42.7644C80.0779 43.9657 81.7646 46.8872 81.7647 49.2897L81.7648 50.5303C81.7649 52.9328 80.0783 53.9066 77.9977 52.7052L76.9234 52.0849C74.8428 50.8836 73.1561 47.9621 73.1561 45.5596L73.156 44.319ZM62.5746 17.2913C60.494 16.09 58.8075 17.0637 58.8076 19.4663L58.8076 20.7068C58.8077 23.1094 60.4944 26.0309 62.575 27.2322L63.6493 27.8525C65.7299 29.0539 67.4164 28.0801 67.4163 25.6776L67.4163 24.437C67.4162 22.0345 65.7295 19.113 63.6489 17.9117L62.5746 17.2913ZM50.1988 12.8642C50.1988 11.3626 51.2529 10.754 52.5532 11.5049L53.5834 12.0997C54.8837 12.8505 55.9379 14.6765 55.938 16.178L55.938 17.3676C55.9381 18.8692 54.884 19.4778 53.5836 18.7269L52.5535 18.1321C51.2531 17.3813 50.1989 15.5553 50.1989 14.0538L50.1988 12.8642ZM55.4232 23.1026C54.1228 22.3518 53.0687 22.9604 53.0688 24.462L53.0688 25.6515C53.0689 27.1531 54.1231 28.9791 55.4234 29.7299L56.4536 30.3247C57.7539 31.0756 58.808 30.467 58.8079 28.9654L58.8079 27.7758C58.8078 26.2742 57.7537 24.4483 56.4533 23.6975L55.4232 23.1026ZM76.0261 57.5991C76.026 56.0975 77.0801 55.4889 78.3804 56.2398L79.4106 56.8346C80.7109 57.5854 81.7651 59.4114 81.7652 60.9129L81.7652 62.1025C81.7653 63.6041 80.7112 64.2127 79.4108 63.4618L78.3807 62.867C77.0803 62.1162 76.0262 60.2902 76.0261 58.7887L76.0261 57.5991ZM69.7716 47.9554C68.4712 47.2045 67.4171 47.8131 67.4172 49.3147L67.4172 50.5043C67.4173 52.0058 68.4715 53.8318 69.7718 54.5826L70.802 55.1774C72.1023 55.9283 73.1564 55.3197 73.1564 53.8181L73.1563 52.6285C73.1563 51.1269 72.1021 49.301 70.8017 48.5502L69.7716 47.9554ZM55.9389 39.3734C55.9388 37.8719 56.9929 37.2633 58.2932 38.0141L59.3234 38.6089C60.6237 39.3598 61.6779 41.1857 61.678 42.6873L61.678 43.8768C61.6781 45.3784 60.624 45.987 59.3236 45.2362L58.2935 44.6414C56.9931 43.8905 55.939 42.0646 55.9389 40.563L55.9389 39.3734ZM65.4447 32.2028C63.3641 31.0014 61.6776 31.9752 61.6777 34.3777L61.6777 35.6183C61.6778 38.0208 63.3645 40.9423 65.4451 42.1436L66.5194 42.764C68.6 43.9653 70.2865 42.9915 70.2864 40.589L70.2864 39.3484C70.2863 36.9459 68.5996 34.0244 66.519 32.8231L65.4447 32.2028Z" fill="#1E40AF"/>
<path fill-rule="evenodd" clip-rule="evenodd" d="M42.3706 75.5335C39.7698 77.035 39.7698 79.4694 42.3706 80.9708L44.431 82.1603C47.0318 83.6618 51.2486 83.6618 53.8494 82.1603L55.9098 80.9708C58.5106 79.4694 58.5106 77.035 55.9098 75.5335L53.8494 74.344C51.2486 72.8425 47.0319 72.8425 44.431 74.344L42.3706 75.5335ZM58.6469 69.4503C56.5663 70.6515 56.5663 72.599 58.6469 73.8002L59.7213 74.4204C61.8019 75.6216 65.1753 75.6216 67.256 74.4204L68.3304 73.8002C70.411 72.599 70.411 70.6515 68.3304 69.4503L67.256 68.8301C65.1753 67.6289 61.8019 67.6289 59.7213 68.8301L58.6469 69.4503ZM29.95 73.8002C27.8693 72.5991 27.8693 70.6516 29.95 69.4504L31.0243 68.8301C33.105 67.6289 36.4784 67.6289 38.5591 68.8301L39.6334 69.4504C41.7141 70.6515 41.7141 72.599 39.6334 73.8002L38.559 74.4205C36.4784 75.6217 33.105 75.6217 31.0243 74.4205L29.95 73.8002ZM19.9281 65.2959C18.6277 66.0466 18.6277 67.2638 19.9281 68.0146L20.9583 68.6093C22.2587 69.36 24.3671 69.36 25.6675 68.6093L26.6977 68.0146C27.9981 67.2638 27.9981 66.0466 26.6977 65.2959L25.6675 64.7011C24.3671 63.9504 22.2587 63.9504 20.9583 64.7011L19.9281 65.2959ZM31.4069 64.7011C30.1065 63.9504 30.1065 62.7332 31.4069 61.9825L32.4371 61.3877C33.7375 60.637 35.8459 60.637 37.1463 61.3877L38.1765 61.9825C39.4769 62.7332 39.4769 63.9504 38.1765 64.7011L37.1463 65.2959C35.8459 66.0466 33.7375 66.0466 32.4371 65.2959L31.4069 64.7011ZM71.5827 65.2958C70.2823 66.0466 70.2823 67.2638 71.5827 68.0145L72.6129 68.6092C73.9133 69.36 76.0216 69.36 77.3221 68.6092L78.3523 68.0145C79.6527 67.2638 79.6527 66.0466 78.3523 65.2958L77.3221 64.7011C76.0217 63.9504 73.9133 63.9504 72.6129 64.7011L71.5827 65.2958ZM60.1038 64.7011C58.8034 63.9504 58.8034 62.7332 60.1038 61.9824L61.134 61.3877C62.4345 60.6369 64.5428 60.6369 65.8432 61.3877L66.8734 61.9824C68.1738 62.7332 68.1738 63.9504 66.8734 64.7011L65.8432 65.2958C64.5428 66.0466 62.4344 66.0466 61.134 65.2958L60.1038 64.7011ZM45.7554 57.0124C44.455 57.7631 44.455 58.9803 45.7554 59.731L46.7856 60.3258C48.086 61.0765 50.1944 61.0765 51.4948 60.3258L52.525 59.731C53.8254 58.9803 53.8254 57.7631 52.525 57.0124L51.4948 56.4176C50.1944 55.6669 48.0861 55.6669 46.7856 56.4176L45.7554 57.0124ZM44.2985 68.8301C42.2178 67.629 42.2178 65.6815 44.2985 64.4803L45.3729 63.86C47.4535 62.6589 50.8269 62.6588 52.9076 63.86L53.982 64.4803C56.0626 65.6815 56.0626 67.629 53.9819 68.8301L52.9076 69.4504C50.8269 70.6516 47.4535 70.6516 45.3729 69.4504L44.2985 68.8301Z" fill="#1E40AF"/>
</svg>
