<svg width="16" height="16" viewBox="0 0 16 16" fill="none" xmlns="http://www.w3.org/2000/svg">
<g clip-path="url(#clip0_546_1247)">
<path d="M14 6.66634H2M14 8.33301V5.86634C14 4.74624 14 4.18618 13.782 3.75836C13.5903 3.38204 13.2843 3.07607 12.908 2.88433C12.4802 2.66634 11.9201 2.66634 10.8 2.66634H5.2C4.0799 2.66634 3.51984 2.66634 3.09202 2.88433C2.71569 3.07607 2.40973 3.38204 2.21799 3.75836C2 4.18618 2 4.74624 2 5.86634V11.4663C2 12.5864 2 13.1465 2.21799 13.5743C2.40973 13.9506 2.71569 14.2566 3.09202 14.4484C3.51984 14.6663 4.0799 14.6663 5.2 14.6663H8M10.6667 1.33301V3.99967M5.33333 1.33301V3.99967M9.66667 12.6663L11 13.9997L14 10.9997" stroke="white" stroke-width="1.3" stroke-linecap="round" stroke-linejoin="round"/>
</g>
<defs>
<clipPath id="clip0_546_1247">
<rect width="16" height="16" fill="white"/>
</clipPath>
</defs>
</svg>
