<svg width="16" height="16" viewBox="0 0 16 16" fill="none" xmlns="http://www.w3.org/2000/svg">
<path d="M9.33317 1.5127V4.26639C9.33317 4.63976 9.33317 4.82644 9.40583 4.96905C9.46975 5.09449 9.57174 5.19648 9.69718 5.26039C9.83978 5.33305 10.0265 5.33305 10.3998 5.33305H13.1535M5.99984 9.99967L7.99984 11.9997M7.99984 11.9997L9.99984 9.99967M7.99984 11.9997L7.99984 7.99967M9.33317 1.33301H5.8665C4.7464 1.33301 4.18635 1.33301 3.75852 1.55099C3.3822 1.74274 3.07624 2.0487 2.88449 2.42503C2.6665 2.85285 2.6665 3.4129 2.6665 4.53301V11.4663C2.6665 12.5864 2.6665 13.1465 2.88449 13.5743C3.07624 13.9506 3.3822 14.2566 3.75852 14.4484C4.18635 14.6663 4.7464 14.6663 5.8665 14.6663H10.1332C11.2533 14.6663 11.8133 14.6663 12.2412 14.4484C12.6175 14.2566 12.9234 13.9506 13.1152 13.5743C13.3332 13.1465 13.3332 12.5864 13.3332 11.4663V5.33301L9.33317 1.33301Z" stroke="white" stroke-width="1.3" stroke-linecap="round" stroke-linejoin="round"/>
</svg>
