<svg width="24" height="24" viewBox="0 0 24 24" fill="none" xmlns="http://www.w3.org/2000/svg">
<path d="M17.5 21V19C17.5 17.1362 16.2252 15.5701 14.5 15.126M13 3.29075C14.4659 3.88414 15.5 5.32131 15.5 7C15.5 8.67869 14.4659 10.1159 13 10.7092M12 21C12 19.1362 12 18.2043 11.6955 17.4693C11.2895 16.4892 10.5108 15.7105 9.53073 15.3045C8.79565 15 7.86377 15 7 15H6C5.13623 15 4.20435 15 3.46927 15.3045C2.48915 15.7105 1.71046 16.4892 1.30448 17.4693C1 18.2043 1 19.1362 1 21M23 21V19C23 17.1362 21.7252 15.5701 20 15.126M18.5 3.29076C19.9659 3.88415 21 5.32131 21 7C21 8.67869 19.9659 10.1159 18.5 10.7092M10.5 7C10.5 9.20914 8.70914 11 6.5 11C4.29086 11 2.5 9.20914 2.5 7C2.5 4.79086 4.29086 3 6.5 3C8.70914 3 10.5 4.79086 10.5 7Z" stroke="#D4A853" stroke-width="2" stroke-linecap="round" stroke-linejoin="round"/>
</svg>
