<svg width="66" height="64" viewBox="0 0 66 64" fill="none" xmlns="http://www.w3.org/2000/svg">
<path fill-rule="evenodd" clip-rule="evenodd" d="M12.5429 42.9935C11.6633 43.5014 10.9502 43.0897 10.9503 42.074L10.9503 41.2693C10.9503 40.2536 11.6634 39.0184 12.543 38.5105L13.2399 38.1082C14.1195 37.6003 14.8325 38.0119 14.8325 39.0277L14.8325 39.8323C14.8324 40.8481 14.1193 42.0832 13.2397 42.5911L12.5429 42.9935ZM14.1362 26.3836C12.3769 27.3994 10.9509 26.576 10.9509 24.5446L10.951 22.9352C10.9511 20.9038 12.3773 18.4335 14.1365 17.4177L15.5302 16.613C17.2894 15.5972 18.7155 16.4205 18.7154 18.452L18.7153 20.0613C18.7152 22.0928 17.2891 24.5631 15.5298 25.5788L14.1362 26.3836ZM23.2047 18.9059C21.7973 19.7186 20.6565 19.0599 20.6565 17.4347L20.6566 16.5956C20.6566 14.9704 21.7976 12.9942 23.2049 12.1815L23.9317 11.7619C25.339 10.9493 26.4799 11.608 26.4798 13.2331L26.4798 14.0723C26.4797 15.6975 25.3388 17.6737 23.9314 18.4863L23.2047 18.9059ZM10.9506 34.2461C10.9506 35.8713 12.0914 36.53 13.4988 35.7173L14.2255 35.2977C15.6329 34.4851 16.7738 32.5088 16.7739 30.8837L16.7739 30.0445C16.774 28.4194 15.6331 27.7607 14.2258 28.5733L13.499 28.9929C12.0917 29.8056 10.9507 31.7818 10.9507 33.4069L10.9506 34.2461ZM16.7737 36.4701C16.7737 37.4858 17.4867 37.8975 18.3663 37.3896L19.0631 36.9872C19.9427 36.4793 20.6558 35.2442 20.6559 34.2285L20.6559 33.4238C20.656 32.4081 19.9429 31.9964 19.0633 32.5043L18.3665 32.9067C17.4869 33.4146 16.7738 34.6497 16.7737 35.6654L16.7737 36.4701ZM30.0135 12.733C29.1339 13.2409 28.4208 12.8292 28.4209 11.8135L28.4209 11.0088C28.4209 9.99308 29.134 8.75794 30.0137 8.25004L30.7105 7.84768C31.5901 7.33979 32.3031 7.75146 32.3031 8.76719L32.3031 9.57186C32.303 10.5876 31.5899 11.8227 30.7103 12.3306L30.0135 12.733ZM26.4796 19.6587C26.4795 20.6744 27.1926 21.0861 28.0722 20.5782L28.769 20.1759C29.6486 19.668 30.3617 18.4328 30.3618 17.4171L30.3618 16.6124C30.3618 15.5967 29.6488 15.185 28.7692 15.6929L28.0724 16.0953C27.1927 16.6032 26.4797 17.8383 26.4796 18.8541L26.4796 19.6587ZM26.1308 30.6649C25.2512 31.1728 24.5381 30.7611 24.5382 29.7454L24.5382 28.9407C24.5382 27.925 25.2513 26.6899 26.1309 26.182L26.8278 25.7796C27.7074 25.2717 28.4204 25.6834 28.4204 26.6991L28.4203 27.5038C28.4203 28.5195 27.7072 29.7547 26.8276 30.2626L26.1308 30.6649ZM18.715 27.5214C18.715 29.1465 19.8558 29.8052 21.2632 28.9926L21.9899 28.573C23.3973 27.7603 24.5382 25.7841 24.5383 24.159L24.5383 23.3198C24.5384 21.6946 23.3975 21.0359 21.9902 21.8486L21.2634 22.2682C19.8561 23.0808 18.7151 25.057 18.7151 26.6822L18.715 27.5214Z" fill="#1E40AF"/>
<path fill-rule="evenodd" clip-rule="evenodd" d="M47.5444 18.3872C47.5443 16.3558 48.9703 15.5324 50.7296 16.5482L52.1232 17.3529C53.8824 18.3687 55.3086 20.839 55.3087 22.8704L55.3088 24.4797C55.3088 26.5112 53.8828 27.3346 52.1236 26.3188L50.7299 25.514C48.9707 24.4983 47.5445 22.028 47.5444 19.9965L47.5444 18.3872ZM49.4857 29.9797C49.4857 28.3545 50.6265 27.6958 52.0339 28.5084L52.7606 28.9281C54.168 29.7407 55.3089 31.7169 55.309 33.3421L55.309 34.1812C55.3091 35.8064 54.1683 36.4651 52.7609 35.6525L52.0342 35.2328C50.6268 34.4202 49.4858 32.444 49.4858 30.8188L49.4857 29.9797ZM42.3281 11.6971C40.9207 10.8845 39.7798 11.5432 39.7799 13.1683L39.7799 14.0075C39.78 15.6327 40.921 17.6089 42.3283 18.4215L43.055 18.8411C44.4624 19.6537 45.6033 18.9951 45.6032 17.3699L45.6032 16.5307C45.6031 14.9056 44.4622 12.9294 43.0548 12.1167L42.3281 11.6971ZM33.9566 8.70242C33.9566 7.6867 34.6696 7.27502 35.5492 7.78291L36.246 8.18527C37.1257 8.69317 37.8387 9.9283 37.8388 10.944L37.8388 11.7487C37.8389 12.7644 37.1258 13.1761 36.2462 12.6682L35.5494 12.2658C34.6698 11.758 33.9567 10.5228 33.9566 9.50709L33.9566 8.70242ZM37.4906 15.6281C36.6109 15.1202 35.8979 15.5319 35.898 16.5476L35.898 17.3523C35.898 18.368 36.6111 19.6031 37.4907 20.111L38.1876 20.5134C39.0672 21.0213 39.7802 20.6096 39.7802 19.5939L39.7801 18.7892C39.7801 17.7735 39.067 16.5384 38.1874 16.0305L37.4906 15.6281ZM51.4272 38.9629C51.4271 37.9471 52.1402 37.5355 53.0198 38.0433L53.7166 38.4457C54.5962 38.9536 55.3093 40.1887 55.3093 41.2045L55.3094 42.0091C55.3094 43.0248 54.5964 43.4365 53.7168 42.9286L53.0199 42.5263C52.1403 42.0184 51.4272 40.7832 51.4272 39.7675L51.4272 38.9629ZM47.1964 32.4394C46.3168 31.9316 45.6038 32.3432 45.6038 33.359L45.6038 34.1636C45.6039 35.1794 46.317 36.4145 47.1966 36.9224L47.8934 37.3247C48.773 37.8326 49.486 37.421 49.486 36.4052L49.486 35.6006C49.4859 34.5848 48.7728 33.3497 47.8932 32.8418L47.1964 32.4394ZM37.8394 26.6343C37.8394 25.6186 38.5524 25.2069 39.432 25.7148L40.1288 26.1172C41.0084 26.6251 41.7215 27.8602 41.7216 28.8759L41.7216 29.6806C41.7216 30.6963 41.0086 31.108 40.129 30.6001L39.4322 30.1977C38.5526 29.6898 37.8395 28.4547 37.8394 27.439L37.8394 26.6343ZM44.2695 21.7838C42.8622 20.9712 41.7213 21.6298 41.7214 23.255L41.7214 24.0942C41.7215 25.7193 42.8624 27.6955 44.2698 28.5082L44.9965 28.9278C46.4039 29.7404 47.5447 29.0817 47.5447 27.4566L47.5446 26.6174C47.5446 24.9922 46.4036 23.016 44.9962 22.2034L44.2695 21.7838Z" fill="#1E40AF"/>
<path fill-rule="evenodd" clip-rule="evenodd" d="M28.661 51.0935C26.9017 52.1092 26.9017 53.7559 28.6609 54.7715L30.0547 55.5761C31.814 56.5918 34.6663 56.5918 36.4256 55.5761L37.8194 54.7715C39.5787 53.7559 39.5787 52.1092 37.8194 51.0935L36.4257 50.2889C34.6664 49.2732 31.814 49.2732 30.0547 50.2889L28.661 51.0935ZM39.6709 46.9786C38.2634 47.7911 38.2634 49.1085 39.6708 49.921L40.3976 50.3406C41.805 51.1531 44.0869 51.1531 45.4944 50.3406L46.2211 49.921C47.6286 49.1085 47.6286 47.7911 46.2211 46.9786L45.4944 46.559C44.0869 45.7465 41.805 45.7465 40.3976 46.559L39.6709 46.9786ZM20.2591 49.921C18.8517 49.1085 18.8517 47.7912 20.2591 46.9786L20.9859 46.5591C22.3933 45.7465 24.6752 45.7465 26.0826 46.5591L26.8094 46.9786C28.2168 47.7912 28.2168 49.1085 26.8094 49.921L26.0826 50.3406C24.6752 51.1531 22.3933 51.1531 20.9859 50.3406L20.2591 49.921ZM13.48 44.1684C12.6003 44.6762 12.6003 45.4996 13.4799 46.0074L14.1768 46.4097C15.0565 46.9175 16.4826 46.9175 17.3623 46.4097L18.0592 46.0074C18.9388 45.4996 18.9388 44.6762 18.0592 44.1684L17.3623 43.7661C16.4827 43.2582 15.0565 43.2582 14.1768 43.7661L13.48 44.1684ZM21.2446 43.7661C20.365 43.2582 20.365 42.4349 21.2447 41.9271L21.9415 41.5248C22.8212 41.0169 24.2474 41.0169 25.127 41.5247L25.8239 41.9271C26.7035 42.4349 26.7035 43.2582 25.8239 43.7661L25.127 44.1684C24.2473 44.6762 22.8212 44.6762 21.9415 44.1684L21.2446 43.7661ZM48.4211 44.1683C47.5415 44.6762 47.5415 45.4995 48.4211 46.0074L49.118 46.4097C49.9976 46.9175 51.4238 46.9175 52.3034 46.4097L53.0003 46.0074C53.88 45.4995 53.88 44.6762 53.0003 44.1683L52.3035 43.766C51.4238 43.2582 49.9976 43.2582 49.118 43.766L48.4211 44.1683ZM40.6564 43.766C39.7767 43.2582 39.7767 42.4349 40.6564 41.927L41.3533 41.5247C42.2329 41.0169 43.6591 41.0169 44.5387 41.5247L45.2356 41.927C46.1152 42.4349 46.1152 43.2582 45.2356 43.766L44.5387 44.1683C43.6591 44.6762 42.2329 44.6762 41.3532 44.1683L40.6564 43.766ZM30.9506 38.5651C30.0709 39.0729 30.0709 39.8963 30.9506 40.4041L31.6474 40.8064C32.5271 41.3142 33.9533 41.3142 34.8329 40.8064L35.5298 40.4041C36.4094 39.8963 36.4094 39.0729 35.5298 38.5651L34.8329 38.1628C33.9533 37.6549 32.5271 37.6549 31.6474 38.1628L30.9506 38.5651ZM29.965 46.5591C28.5576 45.7466 28.5576 44.4292 29.965 43.6167L30.6918 43.1971C32.0992 42.3846 34.3811 42.3846 35.7885 43.1971L36.5153 43.6167C37.9227 44.4292 37.9227 45.7466 36.5153 46.5591L35.7885 46.9786C34.3811 47.7912 32.0992 47.7912 30.6918 46.9786L29.965 46.5591Z" fill="#1E40AF"/>
</svg>
