<svg width="46" height="44" viewBox="0 0 46 44" fill="none" xmlns="http://www.w3.org/2000/svg">
<path fill-rule="evenodd" clip-rule="evenodd" d="M8.61099 29.5161C8.00712 29.8648 7.5176 29.5822 7.51763 28.8849L7.51765 28.3324C7.51767 27.6351 8.00723 26.7872 8.61111 26.4385L9.0895 26.1622C9.69337 25.8136 10.1829 26.0962 10.1829 26.7935L10.1828 27.3459C10.1828 28.0432 9.69326 28.8912 9.08939 29.2399L8.61099 29.5161ZM9.70482 18.113C8.49707 18.8104 7.51804 18.2451 7.51809 16.8505L7.51814 15.7456C7.51819 14.351 8.49731 12.6551 9.70505 11.9577L10.6618 11.4053C11.8696 10.7079 12.8486 11.2731 12.8486 12.6678L12.8485 13.7726C12.8485 15.1673 11.8694 16.8632 10.6616 17.5605L9.70482 18.113ZM15.9306 12.9794C14.9644 13.5373 14.1812 13.0851 14.1812 11.9694L14.1812 11.3933C14.1813 10.2776 14.9646 8.92086 15.9308 8.36297L16.4297 8.07489C17.3959 7.517 18.1791 7.9692 18.1791 9.08491L18.179 9.66103C18.179 10.7767 17.3957 12.1335 16.4295 12.6914L15.9306 12.9794ZM7.51787 23.5108C7.51783 24.6266 8.30105 25.0788 9.26725 24.5209L9.76616 24.2328C10.7324 23.6749 11.5157 22.3182 11.5157 21.2025L11.5157 20.6263C11.5158 19.5106 10.7325 19.0584 9.76634 19.6163L9.26743 19.9044C8.30123 20.4623 7.51793 21.819 7.51789 22.9347L7.51787 23.5108ZM11.5156 25.0377C11.5155 25.735 12.005 26.0176 12.6089 25.6689L13.0873 25.3927C13.6912 25.044 14.1807 24.1961 14.1808 23.4987L14.1808 22.9463C14.1808 22.249 13.6913 21.9664 13.0874 22.315L12.609 22.5913C12.0052 22.94 11.5156 23.7879 11.5156 24.4852L11.5156 25.0377ZM20.605 8.74154C20.0011 9.09023 19.5116 8.8076 19.5116 8.11028L19.5117 7.55786C19.5117 6.86054 20.0012 6.01258 20.6051 5.6639L21.0835 5.38767C21.6874 5.03898 22.1769 5.32161 22.1769 6.01893L22.1769 6.57135C22.1768 7.26867 21.6873 8.11663 21.0834 8.46531L20.605 8.74154ZM18.1789 13.4962C18.1789 14.1936 18.6684 14.4762 19.2723 14.1275L19.7506 13.8513C20.3545 13.5026 20.8441 12.6546 20.8441 11.9573L20.8441 11.4049C20.8442 10.7076 20.3546 10.4249 19.7508 10.7736L19.2724 11.0499C18.6685 11.3985 18.1789 12.2465 18.1789 12.9438L18.1789 13.4962ZM17.9394 21.0523C17.3355 21.4009 16.846 21.1183 16.8461 20.421L16.8461 19.8686C16.8461 19.1713 17.3357 18.3233 17.9395 17.9746L18.4179 17.6984C19.0218 17.3497 19.5113 17.6323 19.5113 18.3297L19.5113 18.8821C19.5112 19.5794 19.0217 20.4274 18.4178 20.776L17.9394 21.0523ZM12.8483 18.8941C12.8483 20.0099 13.6315 20.4621 14.5977 19.9042L15.0966 19.6161C16.0628 19.0582 16.8461 17.7015 16.8461 16.5858L16.8462 16.0096C16.8462 14.8939 16.063 14.4417 15.0968 14.9996L14.5979 15.2877C13.6317 15.8456 12.8484 17.2023 12.8483 18.318L12.8483 18.8941Z" fill="white"/>
<path fill-rule="evenodd" clip-rule="evenodd" d="M32.6404 12.6234C32.6403 11.2287 33.6194 10.6635 34.8271 11.3608L35.7839 11.9133C36.9916 12.6107 37.9707 14.3066 37.9708 15.7012L37.9708 16.8061C37.9709 18.2007 36.9919 18.766 35.7841 18.0686L34.8273 17.5161C33.6196 16.8188 32.6405 15.1229 32.6404 13.7282L32.6404 12.6234ZM33.9732 20.5819C33.9732 19.4662 34.7564 19.014 35.7226 19.5719L36.2215 19.8599C37.1877 20.4178 37.971 21.7745 37.971 22.8903L37.971 23.4664C37.9711 24.5821 37.1879 25.0343 36.2217 24.4764L35.7227 24.1883C34.7566 23.6304 33.9733 22.2737 33.9732 21.158L33.9732 20.5819ZM29.0593 8.03046C28.0931 7.47257 27.3099 7.92477 27.3099 9.04048L27.3099 9.6166C27.31 10.7323 28.0933 12.089 29.0594 12.6469L29.5584 12.935C30.5246 13.4929 31.3078 13.0407 31.3077 11.925L31.3077 11.3489C31.3077 10.2331 30.5244 8.87642 29.5582 8.31853L29.0593 8.03046ZM23.3121 5.97453C23.312 5.27721 23.8015 4.99458 24.4054 5.34326L24.8838 5.61949C25.4877 5.96818 25.9772 6.81613 25.9773 7.51345L25.9773 8.06587C25.9773 8.76319 25.4878 9.04582 24.8839 8.69714L24.4055 8.42091C23.8017 8.07223 23.3121 7.22427 23.3121 6.52696L23.3121 5.97453ZM25.7382 10.7292C25.1343 10.3805 24.6448 10.6631 24.6448 11.3605L24.6449 11.9129C24.6449 12.6102 25.1344 13.4581 25.7383 13.8068L26.2167 14.0831C26.8206 14.4317 27.3101 14.1491 27.3101 13.4518L27.31 12.8994C27.31 12.202 26.8205 11.3541 26.2166 11.0054L25.7382 10.7292ZM35.306 26.7491C35.306 26.0517 35.7955 25.7691 36.3994 26.1178L36.8778 26.394C37.4816 26.7427 37.9712 27.5907 37.9712 28.288L37.9713 28.8404C37.9713 29.5377 37.4818 29.8204 36.8779 29.4717L36.3995 29.1954C35.7956 28.8468 35.3061 27.9988 35.306 27.3015L35.306 26.7491ZM32.4015 22.2706C31.7976 21.9219 31.3081 22.2045 31.3081 22.9019L31.3082 23.4543C31.3082 24.1516 31.7977 24.9996 32.4016 25.3482L32.88 25.6245C33.4839 25.9731 33.9734 25.6905 33.9734 24.9932L33.9733 24.4408C33.9733 23.7435 33.4838 22.8955 32.8799 22.5468L32.4015 22.2706ZM25.9777 18.2852C25.9777 17.5879 26.4672 17.3053 27.071 17.654L27.5494 17.9302C28.1533 18.2789 28.6429 19.1268 28.6429 19.8241L28.6429 20.3766C28.6429 21.0739 28.1534 21.3565 27.5496 21.0078L27.0712 20.7316C26.4673 20.3829 25.9777 19.535 25.9777 18.8376L25.9777 18.2852ZM30.3921 14.9552C29.4259 14.3973 28.6427 14.8495 28.6428 15.9652L28.6428 16.5413C28.6428 17.6571 29.4261 19.0138 30.3923 19.5717L30.8912 19.8597C31.8574 20.4176 32.6406 19.9654 32.6406 18.8497L32.6406 18.2736C32.6405 17.1579 31.8572 15.8012 30.891 15.2433L30.3921 14.9552Z" fill="white"/>
<path fill-rule="evenodd" clip-rule="evenodd" d="M19.6767 35.0781C18.4689 35.7754 18.4689 36.9059 19.6767 37.6031L20.6336 38.1555C21.8413 38.8528 23.7996 38.8528 25.0074 38.1555L25.9642 37.6031C27.172 36.9059 27.172 35.7754 25.9642 35.0781L25.0074 34.5257C23.7996 33.8284 21.8414 33.8284 20.6336 34.5257L19.6767 35.0781ZM27.2353 32.2531C26.2691 32.8109 26.2691 33.7153 27.2353 34.2731L27.7342 34.5612C28.7005 35.119 30.267 35.119 31.2333 34.5612L31.7322 34.2731C32.6985 33.7153 32.6985 32.8109 31.7322 32.2531L31.2333 31.9651C30.2671 31.4072 28.7005 31.4072 27.7342 31.9651L27.2353 32.2531ZM13.9087 34.2732C12.9424 33.7153 12.9424 32.8109 13.9087 32.2531L14.4076 31.9651C15.3738 31.4073 16.9404 31.4073 17.9067 31.9651L18.4056 32.2531C19.3718 32.8109 19.3718 33.7153 18.4056 34.2732L17.9067 34.5612C16.9404 35.119 15.3738 35.119 14.4076 34.5612L13.9087 34.2732ZM9.25459 30.3238C8.65069 30.6725 8.65069 31.2377 9.25459 31.5863L9.733 31.8625C10.3369 32.2112 11.316 32.2112 11.9199 31.8625L12.3983 31.5863C13.0022 31.2377 13.0022 30.6724 12.3983 30.3238L11.9199 30.0476C11.316 29.699 10.3369 29.699 9.73301 30.0476L9.25459 30.3238ZM14.5852 30.0476C13.9814 29.699 13.9814 29.1337 14.5853 28.7851L15.0637 28.5089C15.6676 28.1603 16.6467 28.1603 17.2506 28.5089L17.729 28.7851C18.3329 29.1337 18.3329 29.699 17.729 30.0476L17.2506 30.3238C16.6467 30.6724 15.6676 30.6724 15.0637 30.3238L14.5852 30.0476ZM33.2426 30.3238C32.6387 30.6724 32.6387 31.2377 33.2426 31.5863L33.721 31.8625C34.3249 32.2111 35.304 32.2111 35.9079 31.8625L36.3863 31.5863C36.9902 31.2377 36.9902 30.6724 36.3863 30.3238L35.9079 30.0476C35.304 29.699 34.3249 29.699 33.721 30.0476L33.2426 30.3238ZM27.9119 30.0476C27.308 29.699 27.308 29.1337 27.9119 28.7851L28.3903 28.5089C28.9942 28.1602 29.9733 28.1602 30.5772 28.5089L31.0556 28.7851C31.6595 29.1337 31.6595 29.699 31.0556 30.0476L30.5772 30.3238C29.9733 30.6724 28.9942 30.6724 28.3903 30.3238L27.9119 30.0476ZM21.2486 26.477C20.6447 26.8256 20.6447 27.3909 21.2486 27.7395L21.727 28.0157C22.3309 28.3644 23.31 28.3644 23.9139 28.0157L24.3923 27.7395C24.9962 27.3909 24.9962 26.8256 24.3923 26.477L23.9139 26.2008C23.31 25.8522 22.3309 25.8522 21.727 26.2008L21.2486 26.477ZM20.572 31.9651C19.6058 31.4073 19.6058 30.5029 20.572 29.9451L21.0709 29.657C22.0372 29.0992 23.6038 29.0992 24.57 29.657L25.0689 29.945C26.0352 30.5029 26.0352 31.4073 25.0689 31.9651L24.57 32.2531C23.6037 32.8109 22.0372 32.8109 21.0709 32.2531L20.572 31.9651Z" fill="white"/>
</svg>
