<svg width="110" height="24" viewBox="0 0 110 24" fill="none" xmlns="http://www.w3.org/2000/svg">
<path d="M45.4482 9.27246C46.0217 8.45098 46.8033 7.78398 47.792 7.27051C48.8006 6.73647 49.9183 6.46875 51.1445 6.46875C52.5883 6.46875 53.8937 6.82896 55.0605 7.54785C56.2272 8.26667 57.147 9.29313 57.8193 10.6279C58.4917 11.9424 58.8281 13.4525 58.8281 15.1572C58.8281 16.862 58.4918 18.3924 57.8193 19.748C57.147 21.083 56.2177 22.1307 55.0312 22.8906C53.8644 23.6301 52.5685 24 51.1445 24C49.8788 24 48.7516 23.743 47.7627 23.2295C46.7936 22.716 46.0218 22.0589 45.4482 21.2578V23.7227H42.0664V0.922852H45.4482V9.27246ZM74.3896 6.46973C76.2487 6.46974 77.7418 6.96234 78.8691 7.94824C80.0162 8.91362 80.6289 10.2386 80.708 11.9229H77.3262C77.2668 11.1629 76.9705 10.5564 76.4365 10.1045C75.9025 9.65272 75.1802 9.42676 74.2705 9.42676C73.3807 9.42681 72.6982 9.60204 72.2236 9.95117C71.7493 10.3002 71.5118 10.7621 71.5117 11.3369C71.5117 11.7888 71.6699 12.1694 71.9863 12.4775C72.3028 12.7856 72.6887 13.0319 73.1436 13.2168C73.5984 13.3811 74.2712 13.5963 75.1611 13.8633C76.3477 14.1919 77.3168 14.5317 78.0684 14.8809C78.8395 15.2095 79.502 15.7022 80.0557 16.3594C80.6094 17.0167 80.8962 17.8899 80.916 18.9785C80.9159 19.9437 80.6587 20.8065 80.1445 21.5664C79.6303 22.3263 78.8984 22.9222 77.9492 23.3535C77.0198 23.7847 75.9218 24 74.6562 24C73.3709 24 72.2139 23.7643 71.1855 23.292C70.1769 22.799 69.3755 22.1409 68.7822 21.3193C68.1891 20.4773 67.8726 19.5424 67.833 18.5156H71.334C71.3933 19.2345 71.7193 19.841 72.3125 20.334C72.9256 20.8064 73.6879 21.042 74.5977 21.042C75.5468 21.0419 76.2788 20.8579 76.793 20.4883C77.3269 20.098 77.5938 19.6044 77.5938 19.0088C77.5937 18.3721 77.2964 17.8999 76.7031 17.5918C76.1296 17.2837 75.2099 16.9449 73.9443 16.5752C72.7183 16.226 71.7195 15.8872 70.9482 15.5586C70.1769 15.23 69.5042 14.7266 68.9307 14.0488C68.3769 13.371 68.1006 12.4773 68.1006 11.3682C68.1006 10.4644 68.3579 9.64276 68.8721 8.90332C69.3863 8.14343 70.1181 7.54752 71.0674 7.11621C72.0364 6.68499 73.1438 6.46973 74.3896 6.46973ZM100.923 6.46973C102.208 6.46975 103.326 6.73649 104.275 7.27051C105.244 7.7839 106.015 8.43067 106.589 9.21094V6.74707H110.001V23.7227H106.589V21.1963C106.015 21.9973 105.234 22.6652 104.245 23.1992C103.256 23.7332 102.129 24 100.863 24C99.4591 24 98.1737 23.63 97.0068 22.8906C95.84 22.1307 94.91 21.0831 94.2178 19.748C93.5455 18.3925 93.21 16.8619 93.21 15.1572C93.21 13.4528 93.5455 11.9433 94.2178 10.6289C94.91 9.31435 95.84 8.29702 97.0068 7.57812C98.1934 6.83877 99.499 6.46973 100.923 6.46973ZM26.6406 16.2041C26.6406 17.724 27.0066 18.8952 27.7383 19.7168C28.47 20.5178 29.4688 20.9189 30.7344 20.9189C32.0001 20.9189 32.9997 20.5179 33.7314 19.7168C34.4828 18.8952 34.8584 17.7239 34.8584 16.2041V6.74609H38.2402V23.7227H34.8584V21.7197C34.3244 22.418 33.6221 22.972 32.752 23.3828C31.9015 23.7731 30.9916 23.9688 30.0225 23.9688C28.737 23.9687 27.5801 23.6913 26.5518 23.1367C25.5431 22.5821 24.7417 21.7605 24.1484 20.6719C23.575 19.5834 23.2881 18.2688 23.2881 16.7285V6.74609H26.6406V16.2041ZM10.5312 2.03223C12.7265 2.03223 14.6751 2.5969 16.376 3.72656C18.0966 4.83572 19.3429 6.41769 20.1143 8.47168H16.0498C15.5158 7.34198 14.7735 6.49989 13.8242 5.94531C12.875 5.39083 11.7771 5.11328 10.5312 5.11328C9.1668 5.11335 7.95067 5.4317 6.88281 6.06836C5.81483 6.7051 4.97443 7.61923 4.36133 8.81055C3.76802 10.0018 3.47071 11.3882 3.4707 12.9697C3.4707 14.5513 3.76803 15.9376 4.36133 17.1289C4.97443 18.3202 5.81483 19.2451 6.88281 19.9023C7.95063 20.5389 9.16687 20.8573 10.5312 20.8574C11.7771 20.8574 12.875 20.5798 13.8242 20.0254C14.7735 19.4708 15.5158 18.6287 16.0498 17.499H20.1143C19.343 19.5529 18.0965 21.134 16.376 22.2432C14.6751 23.3523 12.7265 23.9072 10.5312 23.9072C8.59325 23.9072 6.82352 23.4447 5.22168 22.5205C3.61981 21.5757 2.34383 20.272 1.39453 18.6084C0.464991 16.9447 0 15.0648 0 12.9697C3.38958e-06 10.8747 0.464994 8.99478 1.39453 7.33105C2.34383 5.66749 3.61982 4.37345 5.22168 3.44922C6.84323 2.50456 8.61312 2.0323 10.5312 2.03223ZM64.9189 23.7236H61.5371V6.74707H64.9189V23.7236ZM87.8809 6.74609H91.8555V9.61133H87.8809V19.0088C87.8809 19.6453 88.0191 20.107 88.2959 20.3945C88.5926 20.6616 89.0871 20.7959 89.7793 20.7959H91.8555V23.7227H89.1855C87.6629 23.7226 86.4964 23.3526 85.6855 22.6133C84.8747 21.8739 84.4688 20.6724 84.4688 19.0088V9.61133H82.54V6.74609H84.4688V2.52539H87.8809V6.74609ZM50.4033 9.51953C49.553 9.51953 48.7419 9.74549 47.9707 10.1973C47.2192 10.6491 46.6055 11.3063 46.1309 12.1689C45.676 13.0315 45.4483 14.0481 45.4482 15.2188C45.4482 16.3894 45.6761 17.4166 46.1309 18.2998C46.6055 19.1625 47.2192 19.8196 47.9707 20.2715C48.742 20.7233 49.553 20.9502 50.4033 20.9502C51.2734 20.9501 52.0845 20.7233 52.8359 20.2715C53.607 19.7991 54.22 19.1213 54.6748 18.2383C55.1494 17.3551 55.3867 16.3279 55.3867 15.1572C55.3867 13.9865 55.1494 12.9798 54.6748 12.1377C54.22 11.2753 53.607 10.6286 52.8359 10.1973C52.0845 9.74547 51.2734 9.51961 50.4033 9.51953ZM101.635 9.51953C100.765 9.51953 99.9537 9.74542 99.2021 10.1973C98.4506 10.6286 97.837 11.276 97.3623 12.1387C96.9076 12.9806 96.6807 13.9869 96.6807 15.1572C96.6807 16.3278 96.9076 17.3552 97.3623 18.2383C97.837 19.1215 98.4506 19.8 99.2021 20.2725C99.9734 20.7243 100.784 20.9502 101.635 20.9502C102.505 20.9502 103.316 20.7243 104.067 20.2725C104.819 19.8206 105.422 19.1633 105.877 18.3008C106.352 17.4177 106.589 16.3903 106.589 15.2197C106.589 14.049 106.352 13.0316 105.877 12.1689C105.422 11.3064 104.819 10.6491 104.067 10.1973C103.316 9.7454 102.505 9.51954 101.635 9.51953ZM63.2578 0C63.851 8.19871e-05 64.3553 0.216204 64.7705 0.647461C65.1856 1.07873 65.3935 1.61246 65.3936 2.24902C65.3936 2.88576 65.1858 3.42022 64.7705 3.85156C64.3553 4.28273 63.8509 4.49796 63.2578 4.49805C62.6448 4.49805 62.1301 4.28279 61.7148 3.85156C61.2995 3.42022 61.0918 2.88576 61.0918 2.24902C61.0918 1.61244 61.2997 1.07874 61.7148 0.647461C62.1302 0.216122 62.6447 0 63.2578 0Z" fill="#1E40AF"/>
</svg>
