<svg width="18" height="18" viewBox="0 0 18 18" fill="none" xmlns="http://www.w3.org/2000/svg">
<path d="M3.86667 17.1933H0.258334V5.73163H3.86667V17.1933ZM2.06 4.1433C1.6507 4.141 1.25125 4.0175 0.912067 3.78839C0.572886 3.55928 0.309173 3.23483 0.154211 2.85599C-0.000751972 2.47715 -0.0400192 2.06089 0.0413643 1.65976C0.122748 1.25862 0.321135 0.890578 0.611488 0.602082C0.901842 0.313587 1.27115 0.117568 1.6728 0.0387615C2.07445 -0.0400449 2.49045 0.00189455 2.86829 0.159286C3.24612 0.316678 3.56887 0.582468 3.7958 0.923113C4.02272 1.26376 4.14366 1.66399 4.14333 2.0733C4.14719 2.34733 4.09584 2.61934 3.99235 2.87311C3.88885 3.12687 3.73532 3.3572 3.5409 3.55037C3.34649 3.74353 3.11518 3.89558 2.86076 3.99745C2.60633 4.09932 2.334 4.14892 2.06 4.1433ZM17.1667 17.2033H13.56V10.9416C13.56 9.09497 12.775 8.52497 11.7617 8.52497C10.6917 8.52497 9.64167 9.33164 9.64167 10.9883V17.2033H6.03333V5.73997H9.50333V7.3283H9.55C9.89834 6.6233 11.1183 5.4183 12.98 5.4183C14.9933 5.4183 17.1683 6.6133 17.1683 10.1133L17.1667 17.2033Z" fill="white"/>
</svg>
