<svg width="16" height="16" viewBox="0 0 16 16" fill="none" xmlns="http://www.w3.org/2000/svg">
<path d="M1.33301 4.66699L6.77629 8.47729C7.21707 8.78583 7.43746 8.94011 7.67718 8.99986C7.88894 9.05265 8.11041 9.05265 8.32216 8.99986C8.56189 8.94011 8.78228 8.78583 9.22306 8.47729L14.6663 4.66699M4.53301 13.3337H11.4663C12.5864 13.3337 13.1465 13.3337 13.5743 13.1157C13.9506 12.9239 14.2566 12.618 14.4484 12.2416C14.6663 11.8138 14.6663 11.2538 14.6663 10.1337V5.86699C14.6663 4.74689 14.6663 4.18683 14.4484 3.75901C14.2566 3.38269 13.9506 3.07673 13.5743 2.88498C13.1465 2.66699 12.5864 2.66699 11.4663 2.66699H4.53301C3.4129 2.66699 2.85285 2.66699 2.42503 2.88498C2.0487 3.07673 1.74274 3.38269 1.55099 3.75901C1.33301 4.18683 1.33301 4.74689 1.33301 5.86699V10.1337C1.33301 11.2538 1.33301 11.8138 1.55099 12.2416C1.74274 12.618 2.0487 12.9239 2.42503 13.1157C2.85285 13.3337 3.4129 13.3337 4.53301 13.3337Z" stroke="#363636" stroke-width="1.3" stroke-linecap="round" stroke-linejoin="round"/>
</svg>
