<svg width="16" height="16" viewBox="0 0 16 16" fill="none" xmlns="http://www.w3.org/2000/svg">
<path d="M4.99967 4.66667H6.83301M4.99967 7.33333H6.83301M4.99967 10H6.83301M9.16634 4.66667H10.9997M9.16634 7.33333H10.9997M9.16634 10H10.9997M13.333 14V4.13333C13.333 3.3866 13.333 3.01323 13.1877 2.72801C13.0599 2.47713 12.8559 2.27316 12.605 2.14532C12.3198 2 11.9464 2 11.1997 2H4.79967C4.05294 2 3.67957 2 3.39435 2.14532C3.14347 2.27316 2.9395 2.47713 2.81167 2.72801C2.66634 3.01323 2.66634 3.3866 2.66634 4.13333V14M14.6663 14H1.33301" stroke="#363636" stroke-width="1.3" stroke-linecap="round" stroke-linejoin="round"/>
</svg>
