<svg width="16" height="16" viewBox="0 0 16 16" fill="none" xmlns="http://www.w3.org/2000/svg">
<path d="M11.667 14V12.6667C11.667 11.4241 10.8171 10.38 9.66699 10.084M8.66699 2.19384C9.64427 2.58943 10.3337 3.54754 10.3337 4.66667C10.3337 5.78579 9.64427 6.7439 8.66699 7.1395M8.00033 14C8.00033 12.7575 8.00033 12.1362 7.79734 11.6462C7.52669 10.9928 7.00756 10.4736 6.35415 10.203C5.86409 10 5.24284 10 4.66699 10H4.00033C3.42448 10 2.80323 10 2.31317 10.203C1.65976 10.4736 1.14063 10.9928 0.86998 11.6462C0.666992 12.1362 0.666992 12.7575 0.666992 14M15.3337 14V12.6667C15.3337 11.4241 14.4838 10.38 13.3337 10.084M12.3337 2.19384C13.3109 2.58943 14.0003 3.54754 14.0003 4.66667C14.0003 5.78579 13.3109 6.7439 12.3337 7.1395M7.00033 4.66667C7.00033 6.13943 5.80642 7.33334 4.33366 7.33334C2.8609 7.33334 1.66699 6.13943 1.66699 4.66667C1.66699 3.19391 2.8609 2 4.33366 2C5.80642 2 7.00033 3.19391 7.00033 4.66667Z" stroke="#363636" stroke-width="1.3" stroke-linecap="round" stroke-linejoin="round"/>
</svg>
