<svg xmlns="http://www.w3.org/2000/svg" viewBox="0 0 220 60" width="220" height="60">
  <!-- Sprocket icon -->
  <g transform="translate(25,30)">
    <circle cx="0" cy="0" r="8" fill="none" stroke="#FF7A59" stroke-width="3.5"/>
    <circle cx="0" cy="0" r="3" fill="#FF7A59"/>
    <!-- Spokes -->
    <rect x="-1.8" y="-16" width="3.6" height="8" rx="1.5" fill="#FF7A59"/>
    <rect x="-1.8" y="8" width="3.6" height="8" rx="1.5" fill="#FF7A59"/>
    <rect x="-16" y="-1.8" width="8" height="3.6" rx="1.5" fill="#FF7A59"/>
    <rect x="8" y="-1.8" width="8" height="3.6" rx="1.5" fill="#FF7A59"/>
    <rect x="5" y="-14.5" width="3.6" height="8" rx="1.5" fill="#FF7A59" transform="rotate(45 6.8 -10.7)"/>
    <rect x="-8.6" y="6.5" width="3.6" height="8" rx="1.5" fill="#FF7A59" transform="rotate(45 -6.8 10.5)"/>
    <rect x="5" y="6.5" width="3.6" height="8" rx="1.5" fill="#FF7A59" transform="rotate(-45 6.8 10.5)"/>
    <rect x="-8.6" y="-14.5" width="3.6" height="8" rx="1.5" fill="#FF7A59" transform="rotate(-45 -6.8 -10.7)"/>
  </g>
  <!-- HubSpot text -->
  <text x="50" y="37" font-family="Arial, Helvetica, sans-serif" font-size="24" font-weight="bold" fill="#2D3E50">HubSpot</text>
</svg>
