<svg xmlns="http://www.w3.org/2000/svg" viewBox="0 0 240 70" width="240" height="70">
  <path d="M8,42 C8,30 18,22 30,22 C36,22 41,24 45,28 C48,20 56,14 66,14 C72,14 77,16 81,20 C85,14 93,10 102,10 C116,10 127,20 127,34 C127,35 127,36 127,37 C130,35 134,34 138,34 C150,34 160,43 160,55 C160,55 160,55 160,55 C160,55 160,56 160,56 C153,62 144,66 134,66 C128,66 123,64 118,62 C114,66 108,68 102,68 C94,68 87,64 83,58 C79,62 73,64 66,64 C56,64 48,58 45,50 C42,52 38,54 34,54 C20,54 8,46 8,42 Z" fill="#00A1E0"/>
  <text x="84" y="46" font-family="Arial, Helvetica, sans-serif" font-size="18" font-weight="bold" fill="white" text-anchor="middle" letter-spacing="-0.5">salesforce</text>
</svg>
